<mxfile host="www.draw.io" modified="2019-11-17T06:55:36.886Z" agent="Mozilla/5.0 (Windows NT 10.0; Win64; x64) AppleWebKit/537.36 (KHTML, like Gecko) Chrome/78.0.3904.97 Safari/537.36" etag="B20u2RLjTmSvHIDTsPbz" version="12.2.6" type="github" pages="1">
  <diagram id="a45cf8ec-cd66-6f27-3ac3-be6e809c9e4a" name="Page-1">
    <mxGraphModel dx="1071" dy="681" grid="1" gridSize="10" guides="1" tooltips="1" connect="1" arrows="1" fold="1" page="1" pageScale="1" pageWidth="827" pageHeight="1169" background="#ffffff" math="0" shadow="0">
      <root>
        <mxCell id="0"/>
        <mxCell id="1" parent="0"/>
        <mxCell id="P7g7X8-pk0HL1owsHCSY-183" style="edgeStyle=none;rounded=0;orthogonalLoop=1;jettySize=auto;html=1;" edge="1" parent="1" source="P7g7X8-pk0HL1owsHCSY-172" target="P7g7X8-pk0HL1owsHCSY-181">
          <mxGeometry relative="1" as="geometry">
            <Array as="points">
              <mxPoint x="260" y="460"/>
            </Array>
          </mxGeometry>
        </mxCell>
        <mxCell id="P7g7X8-pk0HL1owsHCSY-172" value="" style="verticalLabelPosition=bottom;aspect=fixed;html=1;verticalAlign=top;strokeColor=none;align=center;outlineConnect=0;shape=mxgraph.citrix.xenapp_server;" vertex="1" parent="1">
          <mxGeometry x="130" y="396" width="80" height="94" as="geometry"/>
        </mxCell>
        <mxCell id="P7g7X8-pk0HL1owsHCSY-184" style="edgeStyle=none;rounded=0;orthogonalLoop=1;jettySize=auto;html=1;" edge="1" parent="1" source="P7g7X8-pk0HL1owsHCSY-181" target="P7g7X8-pk0HL1owsHCSY-172">
          <mxGeometry relative="1" as="geometry">
            <Array as="points">
              <mxPoint x="260" y="420"/>
            </Array>
          </mxGeometry>
        </mxCell>
        <mxCell id="P7g7X8-pk0HL1owsHCSY-181" value="" style="verticalLabelPosition=bottom;aspect=fixed;html=1;verticalAlign=top;strokeColor=none;align=center;outlineConnect=0;shape=mxgraph.citrix.xenapp_server;" vertex="1" parent="1">
          <mxGeometry x="310" y="396" width="80" height="94" as="geometry"/>
        </mxCell>
        <mxCell id="P7g7X8-pk0HL1owsHCSY-173" value="" style="verticalLabelPosition=bottom;aspect=fixed;html=1;verticalAlign=top;strokeColor=none;align=center;outlineConnect=0;shape=mxgraph.citrix.xenapp_web;" vertex="1" parent="1">
          <mxGeometry x="550" y="349" width="79" height="94" as="geometry"/>
        </mxCell>
      </root>
    </mxGraphModel>
  </diagram>
</mxfile>
